Coordinates
version=1
nRows=16
nColumns=22
inDegrees=yes

Units are S.I. units (second, meters, Newtons, ...)
If the header above contains a line with 'inDegrees', this indicates whether rotational values are in degrees (yes) or radians (no).

endheader
time	pelvis_tilt	pelvis_list	pelvis_rotation	pelvis_tx	pelvis_ty	pelvis_tz	hip_flexion_r	hip_adduction_r	hip_rotation_r	knee_angle_r	ankle_angle_r	subtalar_angle_r	hip_flexion_l	hip_adduction_l	hip_rotation_l	knee_angle_l	ankle_angle_l	subtalar_angle_l	lumbar_extension	lumbar_bending	lumbar_rotation
      4.05000000	     -3.21443578	     -2.18977924	    -84.73474370	      0.47999294	      0.99871058	      0.88727314	     -9.42452986	      4.71888868	      4.64272249	    -23.84393540	     14.42388107	      7.72771502	     18.38014481	     -7.55618637	      1.72931632	    -10.44504747	      4.43037836	      8.63134029	     -2.41184185	      1.80886129	      1.37104740
      4.06000000	     -2.96768029	     -2.16886307	    -85.12658293	      0.48384517	      0.99902850	      0.89653111	     -9.53661714	      4.13205820	      4.64773059	    -24.58828868	     13.84000341	      8.79907764	     18.19727116	     -7.20425637	      1.49516951	    -11.23221582	      3.59674789	      8.49853329	     -2.17211634	      1.42468438	      1.41044991
      4.07000000	     -2.70386593	     -2.15304694	    -85.50598960	      0.48768283	      0.99954157	      0.90576437	     -9.57730283	      3.52216229	      4.54920130	    -25.43143260	     13.13391460	      9.96361565	     18.03433228	     -6.84579230	      1.18505437	    -12.07787113	      2.86796287	      8.40732874	     -1.93656208	      1.01753173	      1.45025800
      4.08000000	     -2.41869699	     -2.14081521	    -85.89437119	      0.49145601	      1.00022700	      0.91490053	     -9.50799196	      2.87694990	      4.32840331	    -26.43191127	     12.33340157	     11.13064514	     17.86741599	     -6.48155426	      0.79534962	    -12.93189775	      2.25317158	      8.34408775	     -1.71338374	      0.58235905	      1.50933664
      4.09000000	     -2.12815620	     -2.13751070	    -86.28811528	      0.49517417	      1.00106283	      0.92388699	     -9.32326627	      2.20825322	      3.97730271	    -27.59618674	     11.42681810	     12.30163003	     17.67618792	     -6.12172137	      0.34767745	    -13.75191713	      1.78250237	      8.25175510	     -1.51350722	      0.14310706	      1.56454835
      4.10000000	     -1.84008267	     -2.14335885	    -86.68722760	      0.49884409	      1.00202269	      0.93267698	     -9.02311883	      1.51681657	      3.49521795	    -28.90858768	     10.39927394	     13.46402741	     17.45353355	     -5.76445840	     -0.10751205	    -14.51908144	      1.46090631	      8.07254165	     -1.34122239	     -0.29179010	      1.63942219
      4.11000000	     -1.54830317	     -2.15173734	    -87.09510169	      0.50247185	      1.00305353	      0.94120477	     -8.58367171	      0.79237779	      2.90107546	    -30.39086118	      9.27069477	     14.52105405	     17.19012616	     -5.39476781	     -0.55847155	    -15.19307559	      1.27392016	      7.77202880	     -1.19990626	     -0.72448675	      1.72232537
      4.12000000	     -1.24642810	     -2.15277093	    -87.52279221	      0.50605624	      1.00409929	      0.94943576	     -7.98298138	      0.01621251	      2.19500386	    -32.04949282	      8.08389308	     15.40636059	     16.88066895	     -5.00219818	     -1.01761055	    -15.74051810	      1.19817141	      7.34269192	     -1.08462166	     -1.15816237	      1.80654151
      4.13000000	     -0.91779071	     -2.13998326	    -87.98942907	      0.50956551	      1.00513535	      0.95736202	     -7.21926581	     -0.82932240	      1.43743049	    -33.86031047	      6.84462753	     15.97136430	     16.51216837	     -4.56899683	     -1.47569613	    -16.12747958	      1.19024363	      6.93238991	     -0.99033950	     -1.61383472	      1.92416723
      4.14000000	     -0.60674604	     -2.11584128	    -88.44630884	      0.51310371	      1.00609264	      0.96498846	     -6.32250383	     -1.69746414	      0.61667969	    -35.76484631	      5.68910296	     16.54977701	     16.12769733	     -4.12740326	     -1.94291259	    -16.41707996	      1.28812695	      6.15632879	     -0.92196502	     -2.02783220	      1.98299787
      4.15000000	     -0.26387773	     -2.07949467	    -88.94932431	      0.51653355	      1.00699924	      0.97233472	     -5.29514237	     -2.62878199	     -0.16411618	    -37.73730341	      4.62159383	     16.76951222	     15.68569762	     -3.64404729	     -2.42960298	    -16.54904557	      1.41403554	      5.47397110	     -0.87699304	     -2.47001252	      2.06479061
      4.16000000	      0.08505944	     -2.03093777	    -89.48330127	      0.51986390	      1.00783325	      0.97942003	     -4.16181938	     -3.58566487	     -0.89007808	    -39.71678482	      3.73937026	     16.73226006	     15.20992894	     -3.14657494	     -2.94998554	    -16.55763682	      1.56549192	      4.76116855	     -0.85302850	     -2.90826124	      2.13539544
      4.17000000	      0.43747337	     -1.97375075	    -90.04504985	      0.52306657	      1.00859617	      0.98626053	     -2.94669664	     -4.55042890	     -1.54115140	    -41.65295438	      3.12722986	     16.43770099	     14.70923794	     -2.64382433	     -3.52010124	    -16.46427044	      1.74929938	      4.11703644	     -0.85203563	     -3.34366761	      2.18661640
      4.18000000	      0.78102484	     -1.90477844	    -90.63061233	      0.52610880	      1.00929466	      0.99285431	     -1.66404637	     -5.48986208	     -2.09804487	    -43.49906667	      2.81025873	     15.86928331	     14.20187122	     -2.15217068	     -4.12841858	    -16.29236935	      1.95001383	      3.51307179	     -0.86701007	     -3.76585999	      2.21384828
      4.19000000	      1.12247709	     -1.83825427	    -91.24929740	      0.52893157	      1.00996957	      0.99918238	     -0.33858383	     -6.39075238	     -2.52880867	    -45.22524655	      2.85533532	     15.21950673	     13.68028313	     -1.67198374	     -4.78009969	    -16.05509298	      2.13352411	      3.11308163	     -0.91410495	     -4.19360840	      2.23731114
      4.20000000	      1.38012202	     -1.73469663	    -91.83948591	      0.53162043	      1.01059457	      1.00528382	      1.02931010	     -7.14500656	     -2.92105351	    -46.75996098	      3.03062385	     14.00185464	     13.21267438	     -1.27562842	     -5.38979749	    -15.79615279	      2.35946014	      2.54410083	     -0.93671581	     -4.52622906	      2.17985918
